<svg width="20" height="20" viewBox="0 0 20 20" fill="none" xmlns="http://www.w3.org/2000/svg">
<path d="M10.0083 1.6825C5.42916 1.6825 1.6825 5.42916 1.6825 10.0083C1.6825 14.5867 5.42916 18.3333 10.0083 18.3333C14.5867 18.3333 18.3333 14.5867 18.3333 10.0083C18.3333 5.42916 14.6283 1.6825 10.0083 1.6825ZM13.8375 13.7125C13.6717 13.9617 13.38 14.0458 13.1292 13.88C11.1717 12.6717 8.71583 12.4217 5.80166 13.0875C5.51166 13.1725 5.26166 12.9642 5.17833 12.7133C5.09416 12.4217 5.30249 12.1733 5.55333 12.0892C8.71583 11.3808 11.4642 11.6733 13.6283 13.0058C13.92 13.13 13.9617 13.4625 13.8375 13.7125ZM14.8375 11.4233C14.6283 11.7142 14.2542 11.8392 13.9617 11.6308C11.7142 10.2592 8.30166 9.84083 5.67916 10.6742C5.34749 10.7583 4.97083 10.5908 4.88833 10.2592C4.80416 9.92416 4.97166 9.54916 5.30416 9.46583C8.34249 8.55083 12.09 9.00916 14.67 10.5917C14.92 10.7158 15.045 11.1317 14.8375 11.4233ZM14.92 9.09083C12.2558 7.50999 7.80166 7.34333 5.26166 8.13583C5.0685 8.19149 4.86132 8.17059 4.68316 8.07748C4.50501 7.98436 4.36957 7.82619 4.30499 7.63583C4.24835 7.44243 4.26866 7.23463 4.36169 7.05586C4.45472 6.8771 4.61326 6.74123 4.80416 6.67666C7.75999 5.80249 12.6308 5.96833 15.7117 7.80249C16.0858 8.00999 16.2108 8.50999 16.0025 8.88416C15.7942 9.17583 15.295 9.29916 14.92 9.09083Z" fill="#E8E8E8"/>
</svg>
